<?xml version="1.0" encoding="UTF-8" standalone="no"?>
<!-- Created with Inkscape (http://www.inkscape.org/) -->

<svg
   width="1920"
   height="1080"
   viewBox="0 0 1920 1080"
   version="1.1"
   id="svg1"
   inkscape:version="1.3.1 (91b66b0783, 2023-11-16)"
   sodipodi:docname="coming_soon.svg"
   inkscape:export-filename="Logo.png"
   inkscape:export-xdpi="96"
   inkscape:export-ydpi="96"
   xmlns:inkscape="http://www.inkscape.org/namespaces/inkscape"
   xmlns:sodipodi="http://sodipodi.sourceforge.net/DTD/sodipodi-0.dtd"
   xmlns:xlink="http://www.w3.org/1999/xlink"
   xmlns="http://www.w3.org/2000/svg"
   xmlns:svg="http://www.w3.org/2000/svg">
  <sodipodi:namedview
     id="namedview1"
     pagecolor="#ffffff"
     bordercolor="#000000"
     borderopacity="0.25"
     inkscape:showpageshadow="2"
     inkscape:pageopacity="0.0"
     inkscape:pagecheckerboard="0"
     inkscape:deskcolor="#d1d1d1"
     inkscape:document-units="px"
     inkscape:zoom="0.36435185"
     inkscape:cx="1587.751"
     inkscape:cy="127.62389"
     inkscape:window-width="1920"
     inkscape:window-height="1001"
     inkscape:window-x="-9"
     inkscape:window-y="-9"
     inkscape:window-maximized="1"
     inkscape:current-layer="layer1"
     inkscape:export-bgcolor="#ffffffff" />
  <defs
     id="defs1">
    <rect
       x="263.48157"
       y="634.00256"
       width="1243.3037"
       height="266.22617"
       id="rect11" />
    <linearGradient
       id="linearGradient6"
       inkscape:collect="always">
      <stop
         style="stop-color:#0035f7;stop-opacity:1;"
         offset="0"
         id="stop6" />
      <stop
         style="stop-color:#00b2c0;stop-opacity:1;"
         offset="0.81684983"
         id="stop8" />
    </linearGradient>
    <linearGradient
       inkscape:collect="always"
       xlink:href="#linearGradient6"
       id="linearGradient7"
       x1="141.45071"
       y1="612.39691"
       x2="742.41425"
       y2="552.04645"
       gradientUnits="userSpaceOnUse" />
    <linearGradient
       inkscape:collect="always"
       xlink:href="#linearGradient6"
       id="linearGradient1"
       gradientUnits="userSpaceOnUse"
       x1="141.45071"
       y1="612.39691"
       x2="742.41425"
       y2="552.04645" />
    <linearGradient
       inkscape:collect="always"
       xlink:href="#linearGradient6"
       id="linearGradient2"
       gradientUnits="userSpaceOnUse"
       x1="141.45071"
       y1="612.39691"
       x2="742.41425"
       y2="552.04645" />
    <linearGradient
       inkscape:collect="always"
       xlink:href="#linearGradient6"
       id="linearGradient3"
       gradientUnits="userSpaceOnUse"
       x1="141.45071"
       y1="612.39691"
       x2="742.41425"
       y2="552.04645" />
    <linearGradient
       inkscape:collect="always"
       xlink:href="#linearGradient6"
       id="linearGradient4"
       gradientUnits="userSpaceOnUse"
       x1="141.45071"
       y1="612.39691"
       x2="742.41425"
       y2="552.04645" />
  </defs>
  <g
     inkscape:label="Layer 1"
     inkscape:groupmode="layer"
     id="layer1">
    <g
       id="g6"
       style="fill:url(#linearGradient7);fill-opacity:1"
       inkscape:export-filename="Logo.png"
       inkscape:export-xdpi="124.40887"
       inkscape:export-ydpi="124.40887"
       transform="matrix(0.72138422,0,0,0.72138422,573.19712,-44.414065)">
      <g
         id="g5"
         transform="matrix(1.1780837,0,0,1.1780837,-81.156689,-78.835464)"
         style="fill:url(#linearGradient3);fill-opacity:1">
        <path
           style="font-size:231.629px;font-family:'Berkshire Swash';-inkscape-font-specification:'Berkshire Swash';fill:url(#linearGradient1);fill-opacity:1;stroke-width:19.3025"
           d="m 178.02774,423.79935 h 20.58421 v -64.35396 q 0,-2.4882 -0.5655,-3.9585 -0.5655,-1.4703 -1.5834,-2.262 -1.0179,-0.9048 -2.4882,-1.131 -1.3572,-0.3393 -3.0537,-0.3393 -2.48821,0 -6.22051,0.7917 -3.6192,0.7917 -7.6908,2.3751 -4.07161,1.5834 -8.25631,3.9585 -4.07161,2.262 -7.35151,5.20261 -3.1668,2.9406 -5.2026,6.5598 -2.0358,3.6192 -2.0358,7.80391 0,3.6192 0.9048,5.7681 1.0179,2.14891 2.262,3.27991 1.2441,1.0179 2.4882,1.3572 1.3572,0.2262 1.9227,0.2262 2.8275,0 4.63711,-0.9048 1.8096,-1.0179 3.2799,-2.03581 1.4703,-1.131 2.7144,-2.0358 1.3572,-1.0179 3.0537,-1.0179 1.3572,0 2.82751,0.6786 1.5834,0.5655 2.8275,1.9227 1.3572,1.35721 2.262,3.61921 0.9048,2.1489 0.9048,5.3157 0,4.52401 -1.8096,7.80391 -1.6965,3.2799 -4.524,5.5419 -2.71441,2.14891 -6.33361,3.27991 -3.5061,1.0179 -7.01221,1.0179 -5.4288,0 -9.8397,-1.8096 -4.29781,-1.92271 -7.35151,-5.20261 -3.0537,-3.2799 -4.6371,-7.69081 -1.58341,-4.4109 -1.58341,-9.3873 0,-7.80391 2.82751,-14.25062 2.8275,-6.5598 7.6908,-11.76241 4.97641,-5.2026 11.53621,-9.048 6.67291,-3.95851 14.36372,-6.55981 7.6908,-2.6013 16.06021,-3.8454 8.36941,-1.3572 16.73881,-1.3572 9.27421,0 14.36372,1.8096 5.2026,1.6965 7.5777,4.1847 2.4882,2.4882 2.9406,5.20261 0.45241,2.7144 0.45241,4.524 v 66.72906 h 41.62083 V 369.3982 q 0,-18.66152 4.8633,-31.78113 4.86331,-13.11961 12.55412,-21.37591 7.6908,-8.36941 17.19121,-12.10172 9.50041,-3.8454 18.88772,-3.8454 6.4467,0 12.21481,1.0179 5.8812,0.9048 10.17901,2.8275 4.4109,1.92271 7.0122,4.86331 2.6013,2.8275 2.6013,6.6729 0,1.69651 -0.5655,3.27991 -0.4524,1.4703 -1.3572,2.7144 -0.9048,1.2441 -2.1489,2.0358 -1.131,0.6786 -2.3751,0.6786 -2.0358,0 -3.6192,-1.2441 -1.58341,-1.2441 -3.05371,-3.0537 -1.3572,-1.9227 -2.7144,-4.07161 -1.3572,-2.262 -3.0537,-4.0716 -1.6965,-1.9227 -3.84541,-3.1668 -2.1489,-1.2441 -5.0895,-1.2441 -6.89911,0 -10.97071,3.8454 -4.0716,3.7323 -6.2205,11.08381 -2.14891,7.23841 -2.82751,18.09602 -0.5655,10.85761 -0.5655,24.88202 v 58.35965 h 22.73312 v 9.95281 h -22.73312 v 68.76485 q 0,3.27991 1.3572,5.31571 1.4703,1.9227 4.41091,1.9227 3.1668,0 5.8812,-1.131 2.7144,-1.131 4.75021,-2.1489 l 1.9227,4.1847 q -2.4882,1.6965 -5.88121,3.5061 -3.2799,1.92271 -7.3515,3.50611 -3.95851,1.6965 -8.59561,2.7144 -4.524,1.131 -9.50041,1.131 -7.69081,0 -12.44101,-2.0358 -4.7502,-2.0358 -7.35151,-5.42881 -2.6013,-3.2799 -3.5061,-7.4646 -0.7917,-4.18471 -0.7917,-8.48251 V 433.75216 H 235.70879 V 490.076 q 0,15.38162 -5.65501,26.80473 -5.5419,11.42311 -15.26851,19.00081 -9.72661,7.69081 -22.95932,11.42311 -13.11961,3.84541 -28.16193,3.84541 -5.7681,0 -11.08381,-1.01791 -5.3157,-0.9048 -9.3873,-2.6013 -4.07161,-1.6965 -6.44671,-4.0716 -2.4882,-2.262 -2.4882,-4.97641 0,-2.0358 0.5655,-4.1847 0.5655,-2.0358 1.6965,-3.7323 1.131,-1.6965 2.8275,-2.8275 1.5834,-1.13101 3.61921,-1.13101 1.2441,0 2.1489,1.24411 1.0179,1.2441 2.0358,3.0537 1.0179,1.9227 2.262,4.0716 1.3572,2.1489 3.393,3.95851 2.14891,1.9227 5.08951,3.1668 2.9406,1.2441 7.35151,1.2441 8.7087,0 14.92921,-3.1668 6.3336,-3.16681 10.40521,-8.93491 4.0716,-5.76811 5.9943,-13.79821 2.0358,-7.91701 2.0358,-17.41742 v -66.27665 h -20.58421 z m 214.21158,76.45566 q 0,1.4703 -0.5655,3.61921 -0.45241,2.0358 -2.37511,3.9585 -1.8096,1.8096 -5.3157,3.0537 -3.5061,1.3572 -9.50041,1.3572 -5.9943,0 -9.38731,-1.4703 -3.393,-1.3572 -5.0895,-3.2799 -1.6965,-1.9227 -2.1489,-3.9585 -0.3393,-2.03581 -0.3393,-3.27991 v -87.31327 q 0,-3.27991 -1.58341,-5.65501 -1.4703,-2.4882 -5.0895,-2.4882 -1.9227,0 -3.2799,0.6786 -1.3572,0.6786 -2.9406,1.9227 l -2.37511,-2.8275 q 2.60131,-2.1489 5.76811,-4.1847 3.2799,-2.1489 7.0122,-3.73231 3.73231,-1.5834 8.03011,-2.6013 4.2978,-1.0179 9.04801,-1.0179 7.3515,0 11.42311,2.0358 4.0716,1.9227 5.9943,4.86331 1.92271,2.8275 2.26201,6.1074 0.4524,3.2799 0.4524,5.76811 z M 354.01148,367.2493 q 0,-3.1668 1.3572,-5.99431 1.47031,-2.9406 3.95851,-5.0895 2.6013,-2.1489 5.8812,-3.393 3.39301,-1.2441 7.35151,-1.2441 3.8454,0 7.12531,1.2441 3.393,1.2441 5.8812,3.393 2.4882,2.1489 3.8454,5.0895 1.4703,2.82751 1.4703,5.99431 0,3.2799 -1.4703,6.1074 -1.3572,2.82751 -3.8454,4.97641 -2.4882,2.0358 -5.8812,3.2799 -3.27991,1.2441 -7.12531,1.2441 -3.9585,0 -7.35151,-1.2441 -3.2799,-1.2441 -5.8812,-3.2799 -2.4882,-2.1489 -3.95851,-4.97641 -1.3572,-2.8275 -1.3572,-6.1074 z m 64.58016,0 q 0,-3.1668 1.3572,-5.99431 1.4703,-2.9406 3.9585,-5.0895 2.6013,-2.1489 5.88121,-3.393 3.393,-1.2441 7.3515,-1.2441 3.84541,0 7.12531,1.2441 3.393,1.2441 5.8812,3.393 2.48821,2.1489 3.84541,5.0895 1.4703,2.82751 1.4703,5.99431 0,3.2799 -1.4703,6.1074 -1.3572,2.82751 -3.84541,4.97641 -2.4882,2.0358 -5.8812,3.2799 -3.2799,1.2441 -7.12531,1.2441 -3.9585,0 -7.3515,-1.2441 -3.27991,-1.2441 -5.88121,-3.2799 -2.4882,-2.1489 -3.9585,-4.97641 -1.3572,-2.8275 -1.3572,-6.1074 z m 3.5061,45.69244 q 0,-3.27991 -1.5834,-5.65501 -1.4703,-2.4882 -5.08951,-2.4882 -1.9227,0 -3.2799,0.6786 -1.3572,0.6786 -2.9406,1.9227 l -2.3751,-2.8275 q 2.6013,-2.1489 5.7681,-4.1847 3.27991,-2.1489 7.01221,-3.73231 3.7323,-1.5834 8.03011,-2.6013 4.2978,-1.0179 9.048,-1.0179 7.35151,0 11.42311,2.0358 4.07161,1.9227 5.99431,4.86331 1.9227,2.8275 2.262,6.1074 0.4524,3.2799 0.4524,5.76811 v 80.07487 q 0,15.38161 -4.0716,28.38812 -3.95851,13.00651 -12.10171,22.39382 -8.14321,9.50041 -20.35802,14.81611 -12.21481,5.31571 -28.50123,5.31571 -5.7681,0 -11.0838,-1.01791 -5.31571,-0.9048 -9.38731,-2.6013 -4.07161,-1.6965 -6.44671,-4.0716 -2.4882,-2.262 -2.4882,-5.08951 0,-2.0358 0.6786,-4.1847 0.5655,-2.0358 1.6965,-3.7323 1.131,-1.6965 2.8275,-2.8275 1.58341,-1.01791 3.61921,-1.01791 1.2441,0 2.262,1.24411 0.9048,1.2441 1.9227,3.0537 1.0179,1.8096 2.3751,3.9585 1.2441,2.262 3.27991,4.07161 2.0358,1.8096 5.0895,3.0537 2.9406,1.2441 7.23841,1.2441 5.7681,0 10.179,-2.3751 4.41091,-2.26201 7.57771,-6.33361 3.1668,-4.0716 5.31571,-9.61351 2.1489,-5.5419 3.393,-11.87551 1.2441,-6.3336 1.6965,-13.23271 0.5655,-6.8991 0.5655,-13.79821 z m 99.30187,3.9585 q 4.2978,-6.5598 9.16111,-11.87551 2.0358,-2.262 4.4109,-4.4109 2.3751,-2.1489 4.86331,-3.84541 2.6013,-1.6965 5.3157,-2.7144 2.7144,-1.0179 5.4288,-1.0179 5.76811,0 9.04801,3.5061 3.2799,3.39301 3.2799,9.61351 0,3.84541 -0.6786,7.46461 -0.5655,3.5061 -2.3751,8.59561 h -3.1668 q -0.6786,-3.50611 -3.1668,-5.76811 -2.48821,-2.3751 -7.23841,-2.3751 -3.5061,0 -6.89911,1.3572 -3.393,1.2441 -6.6729,3.1668 -3.1668,1.9227 -6.10741,4.18471 -2.8275,2.262 -5.2026,4.2978 v 73.40196 q 0,1.4703 -0.4524,3.50611 -0.4524,2.0358 -2.262,3.8454 -1.6965,1.8096 -5.20261,3.0537 -3.393,1.3572 -9.38731,1.3572 -5.9943,0 -9.5004,-1.4703 -3.39301,-1.3572 -5.20261,-3.2799 -1.8096,-1.9227 -2.262,-3.9585 -0.4524,-2.03581 -0.4524,-3.27991 v -87.31327 q 0,-3.27991 -1.5834,-5.65501 -1.4703,-2.4882 -5.08951,-2.4882 -1.9227,0 -3.2799,0.6786 -1.3572,0.6786 -2.9406,1.9227 l -2.3751,-2.8275 q 2.6013,-2.1489 5.7681,-4.1847 3.2799,-2.1489 7.01221,-3.73231 3.7323,-1.5834 8.0301,-2.6013 4.29781,-1.0179 9.04801,-1.0179 4.86331,0 8.25631,1.3572 3.5061,1.2441 5.655,3.393 2.26201,2.03581 3.50611,4.63711 1.2441,2.6013 1.8096,5.3157 0.6786,2.60131 0.7917,5.08951 0.1131,2.3751 0.1131,4.0716 z m 104.5045,34.94793 q 0,-2.8275 -1.8096,-4.2978 -1.80961,-1.4703 -4.63711,-1.4703 -3.9585,0 -7.5777,1.8096 -3.50611,1.8096 -6.22051,5.3157 -2.7144,3.50611 -4.2978,8.70871 -1.58341,5.0895 -1.58341,11.87551 0,6.55981 0.90481,10.85761 1.0179,4.2978 2.6013,6.8991 1.6965,2.48821 3.8454,3.50611 2.1489,1.0179 4.524,1.0179 2.94061,0 5.54191,-1.4703 2.6013,-1.5834 4.524,-3.95851 1.92271,-2.3751 3.05371,-5.3157 1.131,-2.9406 1.131,-5.88121 z m -17.98292,-49.53784 q -3.8454,0 -7.1253,0.9048 -3.27991,0.9048 -5.65501,2.262 -2.3751,1.3572 -3.7323,3.0537 -1.3572,1.58341 -1.3572,3.05371 0,1.6965 1.6965,2.4882 1.8096,0.6786 3.9585,1.6965 2.1489,0.9048 3.8454,2.7144 1.80961,1.6965 1.80961,5.31571 0,2.3751 -1.0179,4.4109 -0.90481,1.9227 -2.60131,3.5061 -1.5834,1.47031 -3.8454,2.37511 -2.1489,0.7917 -4.524,0.7917 -6.33361,0 -10.29211,-4.29781 -3.84541,-4.2978 -3.84541,-11.42311 0,-6.8991 3.61921,-11.76241 3.6192,-4.9764 9.3873,-8.1432 5.88121,-3.16681 13.23272,-4.63711 7.3515,-1.5834 14.70301,-1.5834 8.82181,0 16.85191,1.9227 8.03011,1.9227 14.13752,6.10741 6.2205,4.1847 9.8397,10.63141 3.73231,6.4467 3.73231,15.60781 V 491.207 q 0,1.01791 0.1131,2.26201 0.1131,1.2441 0.5655,2.262 0.4524,1.0179 1.3572,1.6965 0.9048,0.6786 2.6013,0.6786 2.0358,0 3.7323,-1.4703 1.80961,-1.5834 3.16681,-3.1668 l 2.8275,2.3751 q -1.6965,2.3751 -4.0716,5.2026 -2.37511,2.82751 -5.76811,5.31571 -3.393,2.4882 -7.91701,4.1847 -4.524,1.6965 -10.2921,1.6965 -7.12531,0 -12.66722,-4.1847 -5.5419,-4.2978 -7.2384,-13.11961 -3.6192,4.8633 -7.57771,8.1432 -3.8454,3.27991 -7.91701,5.31571 -4.0716,2.0358 -8.2563,2.9406 -4.07161,0.9048 -8.25631,0.9048 -5.4288,0 -10.51831,-1.6965 -5.0895,-1.6965 -9.16111,-5.3157 -3.9585,-3.73231 -6.4467,-9.61351 -2.3751,-5.88121 -2.3751,-14.36371 0,-10.29211 4.0716,-16.85192 4.0716,-6.5598 10.63141,-10.97071 6.6729,-4.524 15.04231,-7.6908 8.48251,-3.16681 17.30432,-6.67291 6.5598,-2.6013 9.5004,-7.69081 3.05371,-5.2026 3.05371,-10.63141 0,-8.3694 -4.97641,-13.34581 -4.8633,-5.0895 -13.34581,-5.0895 z m 117.39789,12.21481 q 4.18471,-5.99431 9.50041,-10.74451 2.1489,-2.0358 4.75021,-3.9585 2.7144,-1.92271 5.655,-3.39301 3.0537,-1.5834 6.33361,-2.4882 3.393,-0.9048 6.8991,-0.9048 7.57771,0 13.57201,2.9406 5.99431,2.94061 10.06591,9.83971 4.07161,6.89911 6.22051,18.32222 2.1489,11.31001 2.1489,28.16192 0,16.39952 -2.9406,28.50123 -2.9406,12.10171 -7.69081,20.58421 -4.7502,8.48251 -10.74451,13.79822 -5.9943,5.4288 -12.10171,8.4825 -6.1074,3.0537 -11.76241,4.18471 -5.655,1.2441 -9.72661,1.3572 l -1.131,-4.63711 q 5.08951,-1.2441 9.04801,-4.6371 3.9585,-3.393 6.67291,-11.08381 2.7144,-7.80391 4.0716,-20.92352 1.4703,-13.11961 1.4703,-33.81693 0,-14.25061 -1.3572,-22.73312 -1.2441,-8.5956 -3.393,-13.00651 -2.03581,-4.524 -4.75021,-5.8812 -2.6013,-1.4703 -5.3157,-1.4703 -3.27991,0 -5.76811,1.8096 -2.4882,1.6965 -4.4109,3.9585 -1.8096,2.262 -3.1668,4.524 -1.2441,2.26201 -2.14891,3.39301 v 75.55086 q 0,1.4703 -0.4524,3.61921 -0.4524,2.0358 -2.262,3.9585 -1.6965,1.8096 -5.2026,3.0537 -3.39301,1.3572 -9.38731,1.3572 -5.99431,0 -9.50041,-1.4703 -3.5061,-1.3572 -5.3157,-3.2799 -1.6965,-1.9227 -2.1489,-3.9585 -0.45241,-2.03581 -0.45241,-3.27991 V 354.35589 q 0,-3.27991 -1.5834,-5.65501 -1.4703,-2.4882 -5.0895,-2.4882 -1.9227,0 -3.393,0.6786 -1.3572,0.5655 -2.94061,1.8096 l -2.262,-2.7144 q 2.6013,-2.1489 5.76811,-4.1847 3.1668,-2.1489 6.8991,-3.73231 3.84541,-1.5834 8.14321,-2.6013 4.2978,-1.0179 9.04801,-1.0179 7.3515,0 11.42311,2.0358 4.0716,1.9227 5.9943,4.86331 1.9227,2.8275 2.262,6.1074 0.4524,3.1668 0.4524,5.65501 z"
           id="text1"
           aria-label="Hijrah" />
        <path
           style="font-size:231.629px;font-family:'Berkshire Swash';-inkscape-font-specification:'Berkshire Swash';fill:url(#linearGradient2);fill-opacity:1;stroke-width:19.3025"
           d="m 284.1875,688.87239 q 0,2.60131 0.4524,4.97641 0.5655,2.262 2.0358,3.9585 1.5834,1.6965 4.1847,2.7144 2.7144,1.01791 7.01221,1.01791 6.2205,0 11.42311,-3.50611 5.2026,-3.6192 8.9349,-9.16111 3.73231,-5.655 5.76811,-12.55411 2.0358,-7.0122 2.0358,-13.91131 0,-10.29211 -2.8275,-18.09601 -2.7144,-7.91701 -7.69081,-13.34582 -4.9764,-5.4288 -11.76241,-8.3694 -6.786,-3.0537 -14.70301,-3.50611 l 2.262,-5.7681 q 4.97641,0.2262 9.50041,-1.3572 4.524,-1.5834 7.91701,-5.54191 3.5061,-3.9585 5.5419,-10.63141 2.0358,-6.786 2.0358,-16.96501 0,-6.89911 -1.6965,-12.44101 -1.6965,-5.54191 -4.524,-9.27421 -2.7144,-3.8454 -6.44671,-5.8812 -3.6192,-2.03581 -7.4646,-2.03581 -2.37511,0 -4.63711,0.56551 -2.1489,0.5655 -3.8454,1.9227 -1.5834,1.3572 -2.6013,3.6192 -0.9048,2.1489 -0.9048,5.4288 z m 2.262,-148.95282 q 32.79903,0 48.18064,10.29211 15.49471,10.179 15.49471,29.74532 0,4.86331 -1.131,8.93491 -1.0179,4.0716 -2.7144,7.46461 -1.6965,3.2799 -3.8454,5.8812 -2.14891,2.6013 -4.41091,4.524 -5.3157,4.63711 -11.98861,7.23841 v 1.6965 q 10.51831,1.2441 18.88772,6.33361 3.5061,2.1489 6.8991,5.4288 3.39301,3.1668 5.99431,7.80391 2.7144,4.524 4.2978,10.63141 1.6965,5.9943 1.6965,13.79821 0,11.87551 -4.2978,21.37592 -4.2978,9.50041 -12.78031,16.17331 -8.48251,6.55981 -21.14972,10.06591 -12.66721,3.5061 -29.40602,3.5061 -15.49472,0 -25.22133,-1.9227 -9.7266,-1.9227 -15.15541,-5.5419 -5.4288,-3.73231 -7.4646,-8.93491 -1.92271,-5.20261 -1.92271,-11.76241 V 558.92038 q 0,-6.2205 -8.5956,-6.2205 -6.22051,0 -12.66721,1.9227 -6.33361,1.8096 -11.53621,5.0895 -5.08951,3.16681 -8.36941,7.69081 -3.2799,4.4109 -3.2799,9.61351 0,3.6192 0.9048,5.7681 1.0179,2.14891 2.262,3.27991 1.2441,1.0179 2.4882,1.3572 1.3572,0.2262 1.9227,0.2262 2.8275,0 4.63711,-0.9048 1.8096,-1.0179 3.2799,-2.0358 1.4703,-1.13101 2.7144,-2.03581 1.3572,-1.0179 3.0537,-1.0179 1.3572,0 2.82751,0.6786 1.5834,0.5655 2.8275,1.9227 1.3572,1.35721 2.262,3.61921 0.9048,2.1489 0.9048,5.3157 0,4.52401 -1.8096,7.80391 -1.6965,3.2799 -4.524,5.5419 -2.71441,2.14891 -6.33361,3.27991 -3.5061,1.0179 -7.01221,1.0179 -5.4288,0 -9.8397,-1.8096 -4.29781,-1.92271 -7.35151,-5.20261 -3.0537,-3.2799 -4.6371,-7.6908 -1.58341,-4.41091 -1.58341,-9.38731 0,-9.38731 3.50611,-16.51262 3.5061,-7.2384 9.83971,-12.44101 6.4467,-5.2026 15.38161,-8.59561 8.93491,-3.5061 19.79252,-5.5419 10.85761,-2.0358 23.18552,-2.8275 12.44101,-0.9048 25.78682,-0.9048 z m 127.69001,117.1717 q 0,3.6192 1.0179,7.917 1.131,4.18471 3.1668,8.48251 2.03581,4.2978 4.97641,8.25631 3.0537,3.8454 6.8991,6.8991 3.95851,3.05371 8.70871,4.86331 4.75021,1.8096 10.40521,1.8096 3.9585,0 7.35151,-0.9048 3.393,-0.9048 6.3336,-2.4882 2.94061,-1.5834 5.65501,-3.61921 2.7144,-2.1489 5.4288,-4.524 l 2.8275,2.7144 q -2.6013,3.50611 -6.6729,7.69081 -4.0716,4.1847 -9.83971,7.91701 -5.7681,3.6192 -13.45891,6.1074 -7.69081,2.3751 -17.53052,2.3751 -9.8397,0 -19.22701,-3.5061 -9.27421,-3.6192 -16.51262,-10.74451 -7.2384,-7.12531 -11.64931,-17.75671 -4.2978,-10.63141 -4.2978,-24.88203 0,-10.2921 2.6013,-18.88771 2.6013,-8.59561 7.01221,-15.49472 4.524,-6.8991 10.40521,-12.10171 5.9943,-5.2026 12.55411,-8.5956 6.5598,-3.50611 13.34581,-5.20261 6.89911,-1.8096 13.23271,-1.8096 8.36941,0 14.58991,1.8096 6.22051,1.8096 10.29211,4.86331 4.18471,3.0537 6.22051,7.1253 2.0358,3.95851 2.0358,8.36941 0,5.3157 -3.0537,9.61351 -3.05371,4.1847 -8.14321,7.3515 z m 22.73312,-22.95932 q 1.4703,-0.9048 2.3751,-1.6965 1.0179,-0.9048 1.5834,-2.03581 0.5655,-1.2441 0.7917,-2.9406 0.3393,-1.8096 0.3393,-4.4109 0,-2.8275 -0.6786,-6.22051 -0.5655,-3.5061 -2.0358,-6.5598 -1.4703,-3.05371 -3.7323,-5.08951 -2.262,-2.0358 -5.42881,-2.0358 -4.0716,0 -7.0122,2.4882 -2.8275,2.37511 -4.75021,6.22051 -1.8096,3.8454 -2.9406,8.82181 -1.0179,4.8633 -1.5834,9.8397 -0.5655,4.97641 -0.6786,9.61351 -0.1131,4.52401 -0.1131,7.69081 z m 91.38489,-18.66152 q 4.2978,-6.5598 9.16111,-11.87551 2.0358,-2.262 4.4109,-4.4109 2.3751,-2.1489 4.86331,-3.84541 2.6013,-1.6965 5.3157,-2.7144 2.7144,-1.0179 5.4288,-1.0179 5.76811,0 9.04801,3.5061 3.2799,3.39301 3.2799,9.61351 0,3.84541 -0.6786,7.46461 -0.5655,3.5061 -2.3751,8.59561 h -3.1668 q -0.6786,-3.50611 -3.1668,-5.76811 -2.48821,-2.3751 -7.23841,-2.3751 -3.5061,0 -6.89911,1.3572 -3.393,1.2441 -6.6729,3.1668 -3.1668,1.9227 -6.10741,4.18471 -2.8275,2.262 -5.2026,4.2978 v 73.40196 q 0,1.4703 -0.4524,3.50611 -0.4524,2.0358 -2.262,3.8454 -1.6965,1.8096 -5.20261,3.0537 -3.393,1.3572 -9.38731,1.3572 -5.9943,0 -9.5004,-1.4703 -3.39301,-1.3572 -5.20261,-3.2799 -1.8096,-1.9227 -2.262,-3.9585 -0.4524,-2.03581 -0.4524,-3.27991 v -87.31327 q 0,-3.2799 -1.5834,-5.65501 -1.4703,-2.4882 -5.08951,-2.4882 -1.9227,0 -3.2799,0.6786 -1.3572,0.6786 -2.9406,1.9227 l -2.3751,-2.8275 q 2.6013,-2.1489 5.7681,-4.1847 3.2799,-2.1489 7.01221,-3.73231 3.7323,-1.5834 8.0301,-2.6013 4.29781,-1.0179 9.04801,-1.0179 4.86331,0 8.25631,1.3572 3.5061,1.2441 5.655,3.39301 2.26201,2.0358 3.50611,4.6371 1.2441,2.6013 1.8096,5.3157 0.6786,2.60131 0.7917,5.08951 0.1131,2.3751 0.1131,4.0716 z m 88.55735,6.89911 q 3.95851,-5.31571 8.48251,-10.74451 4.524,-5.54191 9.72661,-9.95281 5.2026,-4.4109 11.31001,-7.23841 6.1074,-2.8275 13.34581,-2.8275 6.44671,0 10.74451,2.6013 4.2978,2.48821 6.8991,6.10741 2.71441,3.5061 3.73231,7.3515 1.131,3.84541 1.131,6.55981 0,4.9764 -1.3572,10.40521 -1.2441,5.3157 -4.41091,10.63141 -3.0537,5.2026 -8.2563,10.17901 -5.20261,4.8633 -13.11961,8.9349 10.6314,22.50692 20.69731,38.79334 10.06591,16.17331 19.34012,26.57852 9.38731,10.51831 17.98292,15.49471 8.5956,4.97641 16.39951,4.97641 1.3572,0 2.7144,-0.3393 1.3572,-0.3393 2.4882,-0.7917 1.2441,-0.4524 2.60131,-1.131 l 2.1489,3.9585 q -3.0537,1.6965 -6.22051,3.1668 -3.1668,1.5834 -7.2384,2.7144 -4.07161,1.13101 -9.38731,1.80961 -5.31571,0.6786 -12.66721,0.6786 -6.67291,0 -13.23271,-1.5834 -6.44671,-1.58341 -13.00651,-5.65501 -6.55981,-4.0716 -13.34582,-10.85761 -6.6729,-6.786 -13.79821,-17.19121 -7.0122,-10.40521 -14.47681,-24.76892 -7.46461,-14.36372 -15.49471,-33.59073 10.85761,-8.03011 17.07811,-14.81612 6.22051,-6.8991 9.38731,-12.44101 3.1668,-5.5419 3.9585,-9.8397 0.7917,-4.29781 0.7917,-7.35151 0,-0.4524 -0.1131,-1.4703 -0.1131,-1.131 -0.7917,-2.1489 -0.5655,-1.01791 -1.8096,-1.80961 -1.131,-0.7917 -3.2799,-0.7917 -4.18471,0 -8.48251,3.61921 -4.2978,3.5061 -8.25631,8.8218 -3.8454,5.20261 -7.0122,11.31001 -3.16681,5.99431 -5.20261,10.97071 v 58.35965 q 0,1.4703 -0.5655,3.50611 -0.4524,2.0358 -2.3751,3.8454 -1.8096,1.8096 -5.4288,3.0537 -3.50611,1.3572 -9.50041,1.3572 -5.99431,0 -9.38731,-1.4703 -3.393,-1.3572 -5.0895,-3.2799 -1.58341,-1.9227 -2.03581,-3.9585 -0.3393,-2.03581 -0.3393,-3.27991 V 552.92608 q 0,-3.2799 -1.5834,-5.65501 -1.4703,-2.4882 -5.0895,-2.4882 -1.9227,0 -3.39301,0.6786 -1.3572,0.5655 -2.9406,1.8096 l -2.262,-2.7144 q 2.6013,-2.1489 5.76811,-4.1847 3.1668,-2.1489 6.8991,-3.73231 3.8454,-1.5834 8.14321,-2.6013 4.2978,-1.0179 9.04801,-1.0179 7.3515,0 11.42311,2.0358 4.0716,1.9227 5.9943,4.86331 1.9227,2.8275 2.262,6.1074 0.4524,3.1668 0.4524,5.65501 z m 138.88694,28.04882 q 0,-2.8275 -1.80961,-4.2978 -1.8096,-1.4703 -4.6371,-1.4703 -3.9585,0 -7.57771,1.8096 -3.5061,1.8096 -6.2205,5.3157 -2.7144,3.50611 -4.2978,8.70871 -1.58341,5.0895 -1.58341,11.87551 0,6.55981 0.9048,10.85761 1.01791,4.2978 2.60131,6.89911 1.6965,2.4882 3.8454,3.5061 2.1489,1.0179 4.524,1.0179 2.94061,0 5.54191,-1.4703 2.6013,-1.5834 4.524,-3.95851 1.9227,-2.3751 3.05371,-5.3157 1.131,-2.9406 1.131,-5.88121 z m -17.98292,-49.53784 q -3.8454,0 -7.12531,0.9048 -3.2799,0.9048 -5.655,2.262 -2.3751,1.3572 -3.7323,3.0537 -1.3572,1.58341 -1.3572,3.05371 0,1.6965 1.6965,2.4882 1.8096,0.6786 3.9585,1.6965 2.1489,0.9048 3.8454,2.7144 1.80961,1.6965 1.80961,5.31571 0,2.3751 -1.01791,4.4109 -0.9048,1.9227 -2.6013,3.5061 -1.5834,1.47031 -3.8454,2.37511 -2.1489,0.7917 -4.52401,0.7917 -6.3336,0 -10.2921,-4.29781 -3.84541,-4.2978 -3.84541,-11.42311 0,-6.8991 3.61921,-11.76241 3.6192,-4.9764 9.3873,-8.1432 5.88121,-3.16681 13.23272,-4.63711 7.3515,-1.5834 14.70301,-1.5834 8.82181,0 16.85191,1.9227 8.03011,1.9227 14.13751,6.10741 6.22051,4.1847 9.83971,10.63141 3.73231,6.4467 3.73231,15.60781 v 63.90156 q 0,1.0179 0.1131,2.262 0.1131,1.2441 0.5655,2.262 0.4524,1.0179 1.3572,1.6965 0.9048,0.6786 2.6013,0.6786 2.0358,0 3.7323,-1.4703 1.8096,-1.5834 3.16681,-3.1668 l 2.8275,2.3751 q -1.6965,2.3751 -4.07161,5.2026 -2.3751,2.82751 -5.7681,5.31571 -3.393,2.4882 -7.91701,4.1847 -4.524,1.6965 -10.29211,1.6965 -7.1253,0 -12.66721,-4.1847 -5.5419,-4.2978 -7.2384,-13.11961 -3.61921,4.8633 -7.57771,8.14321 -3.8454,3.2799 -7.91701,5.3157 -4.0716,2.0358 -8.2563,2.9406 -4.07161,0.9048 -8.25631,0.9048 -5.4288,0 -10.51831,-1.6965 -5.0895,-1.6965 -9.16111,-5.3157 -3.9585,-3.73231 -6.4467,-9.61351 -2.3751,-5.88121 -2.3751,-14.36371 0,-10.29211 4.0716,-16.85192 4.0716,-6.5598 10.63141,-10.97071 6.6729,-4.524 15.04231,-7.6908 8.48251,-3.16681 17.30432,-6.67291 6.5598,-2.6013 9.5004,-7.69081 3.05371,-5.2026 3.05371,-10.63141 0,-8.3694 -4.97641,-13.34581 -4.8633,-5.0895 -13.34581,-5.0895 z m 117.39792,12.21481 q 4.18471,-5.99431 9.50041,-10.74451 2.1489,-2.0358 4.75021,-3.9585 2.7144,-1.9227 5.655,-3.39301 3.0537,-1.5834 6.33361,-2.4882 3.393,-0.9048 6.8991,-0.9048 7.57771,0 13.57201,2.9406 5.99431,2.94061 10.06591,9.83971 4.07161,6.89911 6.22051,18.32222 2.1489,11.31001 2.1489,28.16192 0,16.39952 -2.9406,28.50123 -2.94061,12.10171 -7.69081,20.58421 -4.7502,8.48251 -10.74451,13.79822 -5.9943,5.4288 -12.10171,8.4825 -6.1074,3.05371 -11.76241,4.18471 -5.655,1.2441 -9.72661,1.3572 l -1.131,-4.63711 q 5.08951,-1.2441 9.04801,-4.6371 3.9585,-3.393 6.67291,-11.08381 2.7144,-7.80391 4.0716,-20.92352 1.4703,-13.11961 1.4703,-33.81693 0,-14.25061 -1.3572,-22.73312 -1.2441,-8.5956 -3.393,-13.00651 -2.03581,-4.524 -4.75021,-5.8812 -2.6013,-1.4703 -5.3157,-1.4703 -3.27991,0 -5.76811,1.8096 -2.4882,1.6965 -4.4109,3.9585 -1.8096,2.262 -3.1668,4.52401 -1.24411,2.262 -2.14891,3.393 v 75.55086 q 0,1.4703 -0.4524,3.61921 -0.4524,2.0358 -2.262,3.9585 -1.6965,1.8096 -5.2026,3.0537 -3.39301,1.3572 -9.38731,1.3572 -5.99431,0 -9.50041,-1.4703 -3.5061,-1.3572 -5.3157,-3.2799 -1.6965,-1.9227 -2.14891,-3.9585 -0.4524,-2.03581 -0.4524,-3.27991 V 552.92608 q 0,-3.2799 -1.5834,-5.65501 -1.4703,-2.4882 -5.0895,-2.4882 -1.9227,0 -3.393,0.6786 -1.35721,0.5655 -2.94061,1.8096 l -2.262,-2.7144 q 2.6013,-2.1489 5.76811,-4.1847 3.1668,-2.1489 6.8991,-3.73231 3.84541,-1.5834 8.14321,-2.6013 4.2978,-1.0179 9.04801,-1.0179 7.3515,0 11.42311,2.0358 4.0716,1.9227 5.9943,4.86331 1.9227,2.8275 2.262,6.1074 0.4524,3.1668 0.4524,5.65501 z"
           id="text1-8"
           aria-label="Berkah" />
      </g>
      <path
         id="rect5"
         style="fill:url(#linearGradient4);fill-opacity:1;stroke-width:0.324037"
         d="M 83.727753,544.87341 H 1002.9895 v 7.17302 H 83.727753 Z" />
    </g>
    <text
       xml:space="preserve"
       id="text11"
       style="font-family:'Berkshire Swash';-inkscape-font-specification:'Berkshire Swash';white-space:pre;shape-inside:url(#rect11);display:inline;fill:#000000;fill-opacity:1"
       transform="matrix(21.475698,0,0,21.475698,-5416.8531,-13014.351)"><tspan
         x="263.48242"
         y="644.96893"
         id="tspan1">Coming Soon!</tspan></text>
  </g>
</svg>
